M48
METRIC,LZ,000.000
;FILE_FORMAT=3:3
;TYPE=PLATED
;Layer: PTH_Through
;EasyEDA v6.5.54, 2026-05-07 07:20:34
;18ef1e8482c945e6a24963de0b86250d,21a46ec56995462fa0dec69019f6cb4b,10
;Gerber Generator version 0.2
;Holesize 1 = 0.701 mm
T01C0.701
;Holesize 2 = 0.901 mm
T02C0.901
;Holesize 3 = 0.915 mm
T03C0.915
;Holesize 4 = 1.000 mm
T04C1.000
;Holesize 5 = 1.101 mm
T05C1.101
;Holesize 6 = 1.200 mm
T06C1.200
;Holesize 7 = 1.501 mm
T07C1.501
%
G05
G90
T01
X066802Y011938
X059182Y011938
X077597Y011938
X069977Y011938
X068711Y024130
X068711Y031750
X064643Y024130
X064643Y031750
T02
X035139Y012827
X032639Y012827
X030139Y012827
X035139Y025738
X032639Y025738
X030139Y025738
X035139Y038649
X032639Y038649
X030139Y038649
X035139Y051560
X032639Y051560
X030139Y051560
T03
X035087Y019766G85X035082Y019766
X030083Y019768G85X030078Y019768
X035087Y032677G85X035082Y032677
X030083Y032680G85X030078Y032680
X035087Y045588G85X035082Y045588
X030083Y045591G85X030078Y045591
X035087Y058499G85X035082Y058499
X030083Y058502G85X030078Y058502
X072629Y025436G85X072629Y025441
X072631Y030439G85X072631Y030445
T04
X074656Y017526
X072156Y017526
X065004Y017653
X062504Y017653
X044704Y022443
X044704Y025943
X065455Y036830
X067955Y036830
X070455Y036830
X072955Y036830
T05
X042037Y060198
X042037Y057658
X042037Y055118
X042037Y052578
X042037Y042418
X042037Y044958
X042037Y047498
X042037Y050038
X057277Y050038
X057277Y047498
X057277Y044958
X057277Y042418
X057277Y052578
X057277Y055118
X057277Y057658
X057277Y060198
T06
X052036Y026289G85X052041Y026289
X060736Y026289G85X060741Y026289
X065024Y054102
X067564Y054102
X070104Y054102
X072644Y054102
X075184Y054102
X065151Y045466
X067691Y045466
X070231Y045466
X072771Y045466
X075311Y045466
T07
X047117Y015875
X052197Y015875
M30
