G04 Layer: BottomLayer*
G04 EasyEDA v6.5.54, 2026-05-07 07:20:34*
G04 18ef1e8482c945e6a24963de0b86250d,21a46ec56995462fa0dec69019f6cb4b,10*
G04 Gerber Generator version 0.2*
G04 Scale: 100 percent, Rotated: No, Reflected: No *
G04 Dimensions in millimeters *
G04 leading zeros omitted , absolute positions ,4 integer and 5 decimal *
%FSLAX45Y45*%
%MOMM*%

%ADD10C,0.2540*%
%ADD11C,2.0000*%
%ADD12C,1.5500*%
%ADD13C,1.7000*%
%ADD14C,1.6000*%
%ADD15C,1.5240*%
%ADD16C,0.0140*%
%ADD17C,2.2000*%
%ADD18R,1.8000X1.8000*%
%ADD19C,1.8000*%
%ADD20C,1.3000*%

%LPD*%
D10*
X5727674Y5257800D02*
G01*
X4838674Y4368800D01*
X4167200Y4368800D01*
X3825747Y4027347D01*
X3825747Y1594561D01*
X3513886Y1282700D01*
D11*
X3508425Y1976602D02*
G01*
X3263874Y1732051D01*
X3263874Y1282700D01*
X3508425Y1976602D02*
G01*
X3263874Y2221153D01*
X3263874Y2573807D01*
X3508425Y3267710D02*
G01*
X3263874Y3023158D01*
X3263874Y2573807D01*
X3508425Y3267710D02*
G01*
X3263874Y3512261D01*
X3263874Y3864914D01*
X3508425Y4558792D02*
G01*
X3263874Y4314240D01*
X3263874Y3864914D01*
X3508425Y4558792D02*
G01*
X3263874Y4803343D01*
X3263874Y5156022D01*
X3508425Y5849924D02*
G01*
X3263874Y5605373D01*
X3263874Y5156022D01*
X4711725Y1587500D02*
G01*
X4470400Y1828825D01*
X4470400Y2244293D01*
X5203799Y2628900D02*
G01*
X5203799Y2079574D01*
X4711725Y1587500D01*
X3008045Y1976856D02*
G01*
X3013913Y1970989D01*
X3013913Y1282700D01*
X3008045Y1976856D02*
G01*
X3013887Y1982698D01*
X3013887Y2573807D01*
X3008045Y3267963D02*
G01*
X3013887Y3262121D01*
X3013887Y2573807D01*
X3008045Y3267963D02*
G01*
X3013913Y3273831D01*
X3013913Y3864914D01*
X3008045Y4559045D02*
G01*
X3013913Y4553178D01*
X3013913Y3864914D01*
X3008045Y4559045D02*
G01*
X3013913Y4564913D01*
X3013913Y5156022D01*
X3008045Y5850178D02*
G01*
X3008045Y5161889D01*
X3013913Y5156022D01*
X7262875Y2543810D02*
G01*
X7215606Y2496540D01*
X7215606Y1752600D01*
X7295057Y4008881D02*
G01*
X7526680Y3777234D01*
X7526680Y2807614D01*
X7262875Y2543810D01*
X7295057Y4008881D02*
G01*
X7531100Y4244924D01*
X7531100Y4546600D01*
X7045477Y3683000D02*
G01*
X7045477Y3759301D01*
X7295057Y4008881D01*
X7531100Y4546600D02*
G01*
X7531100Y5397500D01*
X7518400Y5410200D01*
D10*
X4203700Y6019800D02*
G01*
X4336288Y5887212D01*
X4336288Y5721578D01*
X4253509Y5638800D01*
X4164177Y5638800D01*
X3930497Y5405120D01*
X3930497Y4223842D01*
X3679367Y3972712D01*
X3679367Y2739288D01*
X3513886Y2573807D01*
X4203700Y5765800D02*
G01*
X3784955Y5347055D01*
X3784955Y4135983D01*
X3513886Y3864914D01*
X7759700Y1193800D02*
G01*
X7465593Y1487906D01*
X7465593Y1752600D01*
X6680200Y1193800D02*
G01*
X6250406Y1623593D01*
X6250406Y1765300D01*
X7277100Y4546600D02*
G01*
X7264400Y4559300D01*
X7264400Y5410200D01*
X7295489Y3683000D02*
G01*
X7263129Y3650640D01*
X7263129Y3044189D01*
X6073800Y2628900D02*
G01*
X5609031Y3093669D01*
X5609031Y4537354D01*
X5694476Y4622800D01*
X5767628Y4622800D01*
X5871336Y4726508D01*
X5871336Y5876162D01*
X5727700Y6019800D01*
X6502400Y5410200D02*
G01*
X6384493Y5410200D01*
X4203700Y4495800D02*
G01*
X5493156Y5785256D01*
X5493156Y5949975D01*
X5680709Y6137529D01*
X5775070Y6137529D01*
X6384493Y5528106D01*
X6384493Y5410200D01*
X5727674Y4495800D02*
G01*
X5842000Y4495800D01*
X6756400Y5410200D01*
X5727674Y4241800D02*
G01*
X5842000Y4241800D01*
X7010400Y5410200D01*
X6871055Y2413000D02*
G01*
X6765696Y2518359D01*
X6765696Y3653205D01*
X6795490Y3683000D01*
X6997700Y1193800D02*
G01*
X6997700Y1464563D01*
X4220463Y4241800D01*
X4203700Y4241800D01*
X6464300Y2413000D02*
G01*
X6562597Y2511297D01*
X6562597Y3665880D01*
X6545478Y3683000D01*
D12*
G01*
X3513886Y1282700D03*
G01*
X3263874Y1282700D03*
G01*
X3013913Y1282700D03*
G01*
X3513886Y2573807D03*
G01*
X3263874Y2573807D03*
G01*
X3013887Y2573807D03*
G01*
X3513886Y3864914D03*
G01*
X3263874Y3864914D03*
G01*
X3013913Y3864914D03*
G01*
X3513886Y5156022D03*
G01*
X3263874Y5156022D03*
G01*
X3013913Y5156022D03*
D13*
G01*
X7465593Y1752600D03*
G01*
X7215606Y1752600D03*
G01*
X6500393Y1765300D03*
G01*
X6250406Y1765300D03*
D14*
G01*
X4470400Y2244293D03*
G01*
X4470400Y2594305D03*
D15*
G01*
X3508425Y1976602D03*
G01*
X3008045Y1976856D03*
G01*
X3508425Y3267710D03*
G01*
X3008045Y3267963D03*
G01*
X3508425Y4558792D03*
G01*
X3008045Y4559045D03*
G01*
X3508425Y5849899D03*
G01*
X3008045Y5850153D03*
G01*
X7262875Y2543810D03*
G01*
X7263129Y3044189D03*
D17*
G01*
X4711725Y1587500D03*
G01*
X5219725Y1587500D03*
D11*
G01*
X5203799Y2628900D03*
G01*
X6073800Y2628900D03*
D18*
G01*
X6502400Y5410200D03*
D19*
G01*
X6756400Y5410200D03*
G01*
X7010400Y5410200D03*
G01*
X7264400Y5410200D03*
G01*
X7518400Y5410200D03*
D18*
G01*
X6515100Y4546600D03*
D19*
G01*
X6769100Y4546600D03*
G01*
X7023100Y4546600D03*
G01*
X7277100Y4546600D03*
G01*
X7531100Y4546600D03*
D13*
G01*
X4203700Y6019800D03*
G01*
X4203700Y5765800D03*
G01*
X4203700Y5511800D03*
G01*
X4203700Y5257800D03*
G01*
X4203700Y4241800D03*
G01*
X4203700Y4495800D03*
G01*
X4203700Y4749800D03*
G01*
X4203700Y5003800D03*
G01*
X5727674Y5003800D03*
G01*
X5727674Y4749800D03*
G01*
X5727674Y4495800D03*
G01*
X5727674Y4241800D03*
G01*
X5727674Y5257800D03*
G01*
X5727674Y5511800D03*
G01*
X5727674Y5765800D03*
G01*
X5727700Y6019800D03*
G01*
X6545478Y3683000D03*
G01*
X6795490Y3683000D03*
G01*
X7045477Y3683000D03*
G01*
X7295489Y3683000D03*
D20*
G01*
X6680200Y1193800D03*
G01*
X5918200Y1193800D03*
G01*
X7759700Y1193800D03*
G01*
X6997700Y1193800D03*
G01*
X6871055Y2413000D03*
G01*
X6871055Y3175000D03*
G01*
X6464300Y2413000D03*
G01*
X6464300Y3175000D03*
M02*
