G04 Layer: BottomSolderMaskLayer*
G04 EasyEDA v6.5.54, 2026-05-07 07:20:34*
G04 18ef1e8482c945e6a24963de0b86250d,21a46ec56995462fa0dec69019f6cb4b,10*
G04 Gerber Generator version 0.2*
G04 Scale: 100 percent, Rotated: No, Reflected: No *
G04 Dimensions in millimeters *
G04 leading zeros omitted , absolute positions ,4 integer and 5 decimal *
%FSLAX45Y45*%
%MOMM*%

%AMMACRO1*4,1,8,-0.921,-0.9507,-0.9507,-0.9207,-0.9507,0.921,-0.921,0.9507,0.9207,0.9507,0.9507,0.921,0.9507,-0.9207,0.9207,-0.9507,-0.921,-0.9507,0*%
%ADD10C,1.6516*%
%ADD11C,1.8016*%
%ADD12C,1.7000*%
%ADD13C,1.6256*%
%ADD14C,2.3016*%
%ADD15C,2.1016*%
%ADD16MACRO1*%
%ADD17C,1.9016*%
%ADD18C,0.0115*%
%ADD19C,1.4016*%

%LPD*%
D10*
G01*
X3513886Y1282700D03*
G01*
X3263874Y1282700D03*
G01*
X3013913Y1282700D03*
G01*
X3513886Y2573807D03*
G01*
X3263874Y2573807D03*
G01*
X3013887Y2573807D03*
G01*
X3513886Y3864914D03*
G01*
X3263874Y3864914D03*
G01*
X3013913Y3864914D03*
G01*
X3513886Y5156022D03*
G01*
X3263874Y5156022D03*
G01*
X3013913Y5156022D03*
D11*
G01*
X7465593Y1752600D03*
G01*
X7215606Y1752600D03*
G01*
X6500393Y1765300D03*
G01*
X6250406Y1765300D03*
D12*
G01*
X4470400Y2244293D03*
G01*
X4470400Y2594305D03*
D13*
G01*
X3508425Y1976602D03*
G01*
X3008045Y1976856D03*
G01*
X3508425Y3267710D03*
G01*
X3008045Y3267963D03*
G01*
X3508425Y4558792D03*
G01*
X3008045Y4559045D03*
G01*
X3508425Y5849899D03*
G01*
X3008045Y5850153D03*
G01*
X7262875Y2543810D03*
G01*
X7263129Y3044189D03*
D14*
G01*
X4711725Y1587500D03*
G01*
X5219725Y1587500D03*
D15*
G01*
X5203799Y2628900D03*
G01*
X6073800Y2628900D03*
D16*
G01*
X6502400Y5410200D03*
D17*
G01*
X6756400Y5410200D03*
G01*
X7010400Y5410200D03*
G01*
X7264400Y5410200D03*
G01*
X7518400Y5410200D03*
D16*
G01*
X6515100Y4546600D03*
D17*
G01*
X6769100Y4546600D03*
G01*
X7023100Y4546600D03*
G01*
X7277100Y4546600D03*
G01*
X7531100Y4546600D03*
D11*
G01*
X4203700Y6019800D03*
G01*
X4203700Y5765800D03*
G01*
X4203700Y5511800D03*
G01*
X4203700Y5257800D03*
G01*
X4203700Y4241800D03*
G01*
X4203700Y4495800D03*
G01*
X4203700Y4749800D03*
G01*
X4203700Y5003800D03*
G01*
X5727674Y5003800D03*
G01*
X5727674Y4749800D03*
G01*
X5727674Y4495800D03*
G01*
X5727674Y4241800D03*
G01*
X5727674Y5257800D03*
G01*
X5727674Y5511800D03*
G01*
X5727674Y5765800D03*
G01*
X5727700Y6019800D03*
G01*
X6545478Y3683000D03*
G01*
X6795490Y3683000D03*
G01*
X7045477Y3683000D03*
G01*
X7295489Y3683000D03*
D19*
G01*
X6680200Y1193800D03*
G01*
X5918200Y1193800D03*
G01*
X7759700Y1193800D03*
G01*
X6997700Y1193800D03*
G01*
X6871055Y2413000D03*
G01*
X6871055Y3175000D03*
G01*
X6464300Y2413000D03*
G01*
X6464300Y3175000D03*
M02*
