G04 Layer: TopLayer*
G04 EasyEDA v6.5.54, 2026-05-07 07:20:34*
G04 18ef1e8482c945e6a24963de0b86250d,21a46ec56995462fa0dec69019f6cb4b,10*
G04 Gerber Generator version 0.2*
G04 Scale: 100 percent, Rotated: No, Reflected: No *
G04 Dimensions in millimeters *
G04 leading zeros omitted , absolute positions ,4 integer and 5 decimal *
%FSLAX45Y45*%
%MOMM*%

%ADD10C,2.0000*%
%ADD11C,0.2540*%
%ADD12C,1.5500*%
%ADD13C,1.7000*%
%ADD14C,1.6000*%
%ADD15C,1.5240*%
%ADD16C,2.2000*%
%ADD17R,1.8000X1.8000*%
%ADD18C,1.8000*%
%ADD19C,0.0154*%
%ADD20C,1.3000*%

%LPD*%
D10*
X4711725Y1587500D02*
G01*
X3897528Y1587500D01*
X3508425Y1976602D01*
X5918200Y1193800D02*
G01*
X5105425Y1193800D01*
X4711725Y1587500D01*
X4451019Y2574925D02*
G01*
X5219725Y1806219D01*
X5219725Y1587500D01*
X4451019Y2574925D02*
G01*
X4470400Y2594305D01*
X3008045Y1976856D02*
G01*
X3291052Y2259863D01*
X4135958Y2259863D01*
X4451019Y2574925D01*
X5219725Y1587500D02*
G01*
X5277967Y1529257D01*
X6341846Y1529257D01*
X6500393Y1687804D01*
X6500393Y1752600D01*
X6500393Y1752600D02*
G01*
X6500393Y1765300D01*
X6500393Y1752600D02*
G01*
X7215606Y1752600D01*
X5727674Y5765800D02*
G01*
X7239279Y5765800D01*
X7518400Y5486679D01*
X7518400Y5410200D01*
D11*
X4203700Y4749800D02*
G01*
X3920109Y4749800D01*
X3513886Y5156022D01*
X7277100Y4546600D02*
G01*
X7277100Y3701389D01*
X7295489Y3683000D01*
X5727674Y5511800D02*
G01*
X5949188Y5290286D01*
X7144486Y5290286D01*
X7264400Y5410200D01*
X6871055Y3175000D02*
G01*
X7132320Y3175000D01*
X7263129Y3044189D01*
X6464300Y3175000D02*
G01*
X6871055Y3175000D01*
X6515100Y4546600D02*
G01*
X6397193Y4546600D01*
X4203700Y5511800D02*
G01*
X5092700Y4622800D01*
X6320993Y4622800D01*
X6397193Y4546600D01*
X5727674Y4749800D02*
G01*
X6565900Y4749800D01*
X6769100Y4546600D01*
X5727674Y5003800D02*
G01*
X6565900Y5003800D01*
X7023100Y4546600D01*
X6795490Y3683000D02*
G01*
X6109690Y4368800D01*
X5092700Y4368800D01*
X4203700Y5257800D01*
X6545478Y3683000D02*
G01*
X5524500Y3683000D01*
X4203700Y5003800D01*
D12*
G01*
X3513886Y1282700D03*
G01*
X3263874Y1282700D03*
G01*
X3013913Y1282700D03*
G01*
X3513886Y2573807D03*
G01*
X3263874Y2573807D03*
G01*
X3013887Y2573807D03*
G01*
X3513886Y3864914D03*
G01*
X3263874Y3864914D03*
G01*
X3013913Y3864914D03*
G01*
X3513886Y5156022D03*
G01*
X3263874Y5156022D03*
G01*
X3013913Y5156022D03*
D13*
G01*
X7465593Y1752600D03*
G01*
X7215606Y1752600D03*
G01*
X6500393Y1765300D03*
G01*
X6250406Y1765300D03*
D14*
G01*
X4470400Y2244293D03*
G01*
X4470400Y2594305D03*
D15*
G01*
X3508425Y1976602D03*
G01*
X3008045Y1976856D03*
G01*
X3508425Y3267710D03*
G01*
X3008045Y3267963D03*
G01*
X3508425Y4558792D03*
G01*
X3008045Y4559045D03*
G01*
X3508425Y5849899D03*
G01*
X3008045Y5850153D03*
G01*
X7262875Y2543810D03*
G01*
X7263129Y3044189D03*
D16*
G01*
X4711725Y1587500D03*
G01*
X5219725Y1587500D03*
D10*
G01*
X5203799Y2628900D03*
G01*
X6073800Y2628900D03*
D17*
G01*
X6502400Y5410200D03*
D18*
G01*
X6756400Y5410200D03*
G01*
X7010400Y5410200D03*
G01*
X7264400Y5410200D03*
G01*
X7518400Y5410200D03*
D17*
G01*
X6515100Y4546600D03*
D18*
G01*
X6769100Y4546600D03*
G01*
X7023100Y4546600D03*
G01*
X7277100Y4546600D03*
G01*
X7531100Y4546600D03*
D13*
G01*
X4203700Y6019800D03*
G01*
X4203700Y5765800D03*
G01*
X4203700Y5511800D03*
G01*
X4203700Y5257800D03*
G01*
X4203700Y4241800D03*
G01*
X4203700Y4495800D03*
G01*
X4203700Y4749800D03*
G01*
X4203700Y5003800D03*
G01*
X5727674Y5003800D03*
G01*
X5727674Y4749800D03*
G01*
X5727674Y4495800D03*
G01*
X5727674Y4241800D03*
G01*
X5727674Y5257800D03*
G01*
X5727674Y5511800D03*
G01*
X5727674Y5765800D03*
G01*
X5727700Y6019800D03*
G01*
X6545478Y3683000D03*
G01*
X6795490Y3683000D03*
G01*
X7045477Y3683000D03*
G01*
X7295489Y3683000D03*
D20*
G01*
X6680200Y1193800D03*
G01*
X5918200Y1193800D03*
G01*
X7759700Y1193800D03*
G01*
X6997700Y1193800D03*
G01*
X6871055Y2413000D03*
G01*
X6871055Y3175000D03*
G01*
X6464300Y2413000D03*
G01*
X6464300Y3175000D03*
M02*
