G04 Layer: TopSilkscreenLayer*
G04 EasyEDA v6.5.54, 2026-05-07 07:20:34*
G04 18ef1e8482c945e6a24963de0b86250d,21a46ec56995462fa0dec69019f6cb4b,10*
G04 Gerber Generator version 0.2*
G04 Scale: 100 percent, Rotated: No, Reflected: No *
G04 Dimensions in millimeters *
G04 leading zeros omitted , absolute positions ,4 integer and 5 decimal *
%FSLAX45Y45*%
%MOMM*%

%ADD10C,0.1524*%
%ADD11C,0.2032*%
%ADD12C,0.2540*%
%ADD13C,0.1999*%
%ADD14C,0.0116*%

%LPD*%
D10*
X3227577Y4597907D02*
G01*
X3222243Y4608321D01*
X3211829Y4618736D01*
X3201670Y4623815D01*
X3180841Y4623815D01*
X3170427Y4618736D01*
X3160013Y4608321D01*
X3154679Y4597907D01*
X3149600Y4582160D01*
X3149600Y4556252D01*
X3154679Y4540757D01*
X3160013Y4530344D01*
X3170427Y4519929D01*
X3180841Y4514850D01*
X3201670Y4514850D01*
X3211829Y4519929D01*
X3222243Y4530344D01*
X3227577Y4540757D01*
X3313684Y4623815D02*
G01*
X3261868Y4551171D01*
X3339845Y4551171D01*
X3313684Y4623815D02*
G01*
X3313684Y4514850D01*
X3240277Y3302507D02*
G01*
X3234943Y3312921D01*
X3224529Y3323336D01*
X3214370Y3328415D01*
X3193541Y3328415D01*
X3183127Y3323336D01*
X3172713Y3312921D01*
X3167379Y3302507D01*
X3162300Y3286760D01*
X3162300Y3260852D01*
X3167379Y3245357D01*
X3172713Y3234944D01*
X3183127Y3224529D01*
X3193541Y3219450D01*
X3214370Y3219450D01*
X3224529Y3224529D01*
X3234943Y3234944D01*
X3240277Y3245357D01*
X3284981Y3328415D02*
G01*
X3342131Y3328415D01*
X3310890Y3286760D01*
X3326384Y3286760D01*
X3336797Y3281679D01*
X3342131Y3276600D01*
X3347211Y3260852D01*
X3347211Y3250437D01*
X3342131Y3234944D01*
X3331718Y3224529D01*
X3315970Y3219450D01*
X3300475Y3219450D01*
X3284981Y3224529D01*
X3279647Y3229610D01*
X3274568Y3240023D01*
X3240277Y2019807D02*
G01*
X3234943Y2030221D01*
X3224529Y2040636D01*
X3214370Y2045715D01*
X3193541Y2045715D01*
X3183127Y2040636D01*
X3172713Y2030221D01*
X3167379Y2019807D01*
X3162300Y2004060D01*
X3162300Y1978152D01*
X3167379Y1962657D01*
X3172713Y1952244D01*
X3183127Y1941829D01*
X3193541Y1936750D01*
X3214370Y1936750D01*
X3224529Y1941829D01*
X3234943Y1952244D01*
X3240277Y1962657D01*
X3279647Y2019807D02*
G01*
X3279647Y2024887D01*
X3284981Y2035302D01*
X3290061Y2040636D01*
X3300475Y2045715D01*
X3321304Y2045715D01*
X3331718Y2040636D01*
X3336797Y2035302D01*
X3342131Y2024887D01*
X3342131Y2014473D01*
X3336797Y2004060D01*
X3326384Y1988565D01*
X3274568Y1936750D01*
X3347211Y1936750D01*
D11*
X4195572Y3672078D02*
G01*
X4177029Y3662934D01*
X4158741Y3644392D01*
X4149343Y3625850D01*
X4140200Y3598163D01*
X4140200Y3552189D01*
X4149343Y3524250D01*
X4158741Y3505962D01*
X4177029Y3487420D01*
X4195572Y3478276D01*
X4232656Y3478276D01*
X4250943Y3487420D01*
X4269486Y3505962D01*
X4278629Y3524250D01*
X4288027Y3552189D01*
X4288027Y3598163D01*
X4278629Y3625850D01*
X4269486Y3644392D01*
X4250943Y3662934D01*
X4232656Y3672078D01*
X4195572Y3672078D01*
X4348988Y3672078D02*
G01*
X4348988Y3478276D01*
X4478274Y3672078D02*
G01*
X4478274Y3478276D01*
X4348988Y3579876D02*
G01*
X4478274Y3579876D01*
X4539234Y3672078D02*
G01*
X4539234Y3478276D01*
X4539234Y3478276D02*
G01*
X4649977Y3478276D01*
X4840224Y3644392D02*
G01*
X4821936Y3662934D01*
X4794250Y3672078D01*
X4757165Y3672078D01*
X4729479Y3662934D01*
X4710938Y3644392D01*
X4710938Y3625850D01*
X4720336Y3607562D01*
X4729479Y3598163D01*
X4748022Y3589020D01*
X4803393Y3570478D01*
X4821936Y3561334D01*
X4831079Y3552189D01*
X4840224Y3533647D01*
X4840224Y3505962D01*
X4821936Y3487420D01*
X4794250Y3478276D01*
X4757165Y3478276D01*
X4729479Y3487420D01*
X4710938Y3505962D01*
X5039868Y3625850D02*
G01*
X5030470Y3644392D01*
X5012181Y3662934D01*
X4993640Y3672078D01*
X4956809Y3672078D01*
X4938268Y3662934D01*
X4919725Y3644392D01*
X4910581Y3625850D01*
X4901184Y3598163D01*
X4901184Y3552189D01*
X4910581Y3524250D01*
X4919725Y3505962D01*
X4938268Y3487420D01*
X4956809Y3478276D01*
X4993640Y3478276D01*
X5012181Y3487420D01*
X5030470Y3505962D01*
X5039868Y3524250D01*
X5100827Y3672078D02*
G01*
X5100827Y3478276D01*
X5230113Y3672078D02*
G01*
X5230113Y3478276D01*
X5100827Y3579876D02*
G01*
X5230113Y3579876D01*
X5346445Y3672078D02*
G01*
X5327904Y3662934D01*
X5309615Y3644392D01*
X5300218Y3625850D01*
X5291074Y3598163D01*
X5291074Y3552189D01*
X5300218Y3524250D01*
X5309615Y3505962D01*
X5327904Y3487420D01*
X5346445Y3478276D01*
X5383529Y3478276D01*
X5401818Y3487420D01*
X5420359Y3505962D01*
X5429504Y3524250D01*
X5438902Y3552189D01*
X5438902Y3598163D01*
X5429504Y3625850D01*
X5420359Y3644392D01*
X5401818Y3662934D01*
X5383529Y3672078D01*
X5346445Y3672078D01*
X5555234Y3672078D02*
G01*
X5536691Y3662934D01*
X5518150Y3644392D01*
X5509006Y3625850D01*
X5499861Y3598163D01*
X5499861Y3552189D01*
X5509006Y3524250D01*
X5518150Y3505962D01*
X5536691Y3487420D01*
X5555234Y3478276D01*
X5592063Y3478276D01*
X5610606Y3487420D01*
X5629147Y3505962D01*
X5638291Y3524250D01*
X5647690Y3552189D01*
X5647690Y3598163D01*
X5638291Y3625850D01*
X5629147Y3644392D01*
X5610606Y3662934D01*
X5592063Y3672078D01*
X5555234Y3672078D01*
X5708650Y3672078D02*
G01*
X5708650Y3478276D01*
X5708650Y3478276D02*
G01*
X5819393Y3478276D01*
X4152900Y3329178D02*
G01*
X4152900Y3135376D01*
X4152900Y3329178D02*
G01*
X4273041Y3329178D01*
X4152900Y3236976D02*
G01*
X4226813Y3236976D01*
X4152900Y3135376D02*
G01*
X4273041Y3135376D01*
X4334002Y3329178D02*
G01*
X4334002Y3135376D01*
X4334002Y3135376D02*
G01*
X4444745Y3135376D01*
X4505706Y3329178D02*
G01*
X4505706Y3135376D01*
X4505706Y3329178D02*
G01*
X4625847Y3329178D01*
X4505706Y3236976D02*
G01*
X4579620Y3236976D01*
X4505706Y3135376D02*
G01*
X4625847Y3135376D01*
X4825238Y3282950D02*
G01*
X4816093Y3301492D01*
X4797552Y3320034D01*
X4779009Y3329178D01*
X4742179Y3329178D01*
X4723638Y3320034D01*
X4705350Y3301492D01*
X4695952Y3282950D01*
X4686808Y3255263D01*
X4686808Y3209289D01*
X4695952Y3181350D01*
X4705350Y3163062D01*
X4723638Y3144520D01*
X4742179Y3135376D01*
X4779009Y3135376D01*
X4797552Y3144520D01*
X4816093Y3163062D01*
X4825238Y3181350D01*
X4950968Y3329178D02*
G01*
X4950968Y3135376D01*
X4886197Y3329178D02*
G01*
X5015484Y3329178D01*
X5076443Y3329178D02*
G01*
X5076443Y3135376D01*
X5076443Y3329178D02*
G01*
X5159756Y3329178D01*
X5187441Y3320034D01*
X5196586Y3310889D01*
X5205729Y3292347D01*
X5205729Y3273805D01*
X5196586Y3255263D01*
X5187441Y3246120D01*
X5159756Y3236976D01*
X5076443Y3236976D01*
X5141213Y3236976D02*
G01*
X5205729Y3135376D01*
X5322315Y3329178D02*
G01*
X5303774Y3320034D01*
X5285231Y3301492D01*
X5276088Y3282950D01*
X5266690Y3255263D01*
X5266690Y3209289D01*
X5276088Y3181350D01*
X5285231Y3163062D01*
X5303774Y3144520D01*
X5322315Y3135376D01*
X5359145Y3135376D01*
X5377688Y3144520D01*
X5396229Y3163062D01*
X5405374Y3181350D01*
X5414518Y3209289D01*
X5414518Y3255263D01*
X5405374Y3282950D01*
X5396229Y3301492D01*
X5377688Y3320034D01*
X5359145Y3329178D01*
X5322315Y3329178D01*
X5475477Y3329178D02*
G01*
X5475477Y3135376D01*
X5475477Y3329178D02*
G01*
X5604763Y3135376D01*
X5604763Y3329178D02*
G01*
X5604763Y3135376D01*
X5665724Y3329178D02*
G01*
X5665724Y3135376D01*
X5865368Y3282950D02*
G01*
X5855970Y3301492D01*
X5837681Y3320034D01*
X5819140Y3329178D01*
X5782309Y3329178D01*
X5763768Y3320034D01*
X5745225Y3301492D01*
X5736081Y3282950D01*
X5726684Y3255263D01*
X5726684Y3209289D01*
X5736081Y3181350D01*
X5745225Y3163062D01*
X5763768Y3144520D01*
X5782309Y3135376D01*
X5819140Y3135376D01*
X5837681Y3144520D01*
X5855970Y3163062D01*
X5865368Y3181350D01*
X6055613Y3301492D02*
G01*
X6037072Y3320034D01*
X6009386Y3329178D01*
X5972556Y3329178D01*
X5944870Y3320034D01*
X5926327Y3301492D01*
X5926327Y3282950D01*
X5935472Y3264662D01*
X5944870Y3255263D01*
X5963158Y3246120D01*
X6018529Y3227578D01*
X6037072Y3218434D01*
X6046470Y3209289D01*
X6055613Y3190747D01*
X6055613Y3163062D01*
X6037072Y3144520D01*
X6009386Y3135376D01*
X5972556Y3135376D01*
X5944870Y3144520D01*
X5926327Y3163062D01*
D10*
X2359152Y5198110D02*
G01*
X2355850Y5204713D01*
X2349500Y5211063D01*
X2343150Y5214112D01*
X2330450Y5214112D01*
X2324100Y5211063D01*
X2317750Y5204713D01*
X2314702Y5198110D01*
X2311400Y5188712D01*
X2311400Y5172710D01*
X2314702Y5163312D01*
X2317750Y5156962D01*
X2324100Y5150612D01*
X2330450Y5147310D01*
X2343150Y5147310D01*
X2349500Y5150612D01*
X2355850Y5156962D01*
X2359152Y5163312D01*
X2359152Y5172710D01*
X2343150Y5172710D02*
G01*
X2359152Y5172710D01*
X2380234Y5191760D02*
G01*
X2380234Y5147310D01*
X2380234Y5172710D02*
G01*
X2383281Y5182362D01*
X2389631Y5188712D01*
X2395981Y5191760D01*
X2405634Y5191760D01*
X2426461Y5214112D02*
G01*
X2429763Y5211063D01*
X2433065Y5214112D01*
X2429763Y5217413D01*
X2426461Y5214112D01*
X2429763Y5191760D02*
G01*
X2429763Y5147310D01*
X2453893Y5191760D02*
G01*
X2453893Y5124957D01*
X2453893Y5182362D02*
G01*
X2460243Y5188712D01*
X2466593Y5191760D01*
X2476245Y5191760D01*
X2482595Y5188712D01*
X2488945Y5182362D01*
X2492247Y5172710D01*
X2492247Y5166360D01*
X2488945Y5156962D01*
X2482595Y5150612D01*
X2476245Y5147310D01*
X2466593Y5147310D01*
X2460243Y5150612D01*
X2453893Y5156962D01*
X2513075Y5191760D02*
G01*
X2513075Y5124957D01*
X2513075Y5182362D02*
G01*
X2519425Y5188712D01*
X2525775Y5191760D01*
X2535427Y5191760D01*
X2541777Y5188712D01*
X2548127Y5182362D01*
X2551429Y5172710D01*
X2551429Y5166360D01*
X2548127Y5156962D01*
X2541777Y5150612D01*
X2535427Y5147310D01*
X2525775Y5147310D01*
X2519425Y5150612D01*
X2513075Y5156962D01*
X2572258Y5172710D02*
G01*
X2610611Y5172710D01*
X2610611Y5179060D01*
X2607309Y5185410D01*
X2604008Y5188712D01*
X2597658Y5191760D01*
X2588259Y5191760D01*
X2581909Y5188712D01*
X2575559Y5182362D01*
X2572258Y5172710D01*
X2572258Y5166360D01*
X2575559Y5156962D01*
X2581909Y5150612D01*
X2588259Y5147310D01*
X2597658Y5147310D01*
X2604008Y5150612D01*
X2610611Y5156962D01*
X2631440Y5191760D02*
G01*
X2631440Y5147310D01*
X2631440Y5172710D02*
G01*
X2634741Y5182362D01*
X2641091Y5188712D01*
X2647441Y5191760D01*
X2656840Y5191760D01*
X7911084Y2808099D02*
G01*
X8020050Y2808099D01*
X7911084Y2808099D02*
G01*
X7911084Y2844421D01*
X7916163Y2860169D01*
X7926577Y2870329D01*
X7936991Y2875663D01*
X7952740Y2880743D01*
X7978647Y2880743D01*
X7994141Y2875663D01*
X8004556Y2870329D01*
X8014970Y2860169D01*
X8020050Y2844421D01*
X8020050Y2808099D01*
X7911084Y2915033D02*
G01*
X8020050Y2915033D01*
X7911084Y2915033D02*
G01*
X7911084Y2982597D01*
X7962900Y2915033D02*
G01*
X7962900Y2956689D01*
X8020050Y2915033D02*
G01*
X8020050Y2982597D01*
X7926577Y3089785D02*
G01*
X7916163Y3079371D01*
X7911084Y3063623D01*
X7911084Y3043049D01*
X7916163Y3027301D01*
X7926577Y3016887D01*
X7936991Y3016887D01*
X7947406Y3022221D01*
X7952740Y3027301D01*
X7957820Y3037715D01*
X7968234Y3068957D01*
X7973313Y3079371D01*
X7978647Y3084451D01*
X7989061Y3089785D01*
X8004556Y3089785D01*
X8014970Y3079371D01*
X8020050Y3063623D01*
X8020050Y3043049D01*
X8014970Y3027301D01*
X8004556Y3016887D01*
X7911084Y3124075D02*
G01*
X8020050Y3124075D01*
X7911084Y3196719D02*
G01*
X7983727Y3124075D01*
X7957820Y3149983D02*
G01*
X8020050Y3196719D01*
X7911084Y3267331D02*
G01*
X8020050Y3267331D01*
X7911084Y3231009D02*
G01*
X7911084Y3303653D01*
X7911084Y3369185D02*
G01*
X7916163Y3358771D01*
X7926577Y3348357D01*
X7936991Y3343277D01*
X7952740Y3337943D01*
X7978647Y3337943D01*
X7994141Y3343277D01*
X8004556Y3348357D01*
X8014970Y3358771D01*
X8020050Y3369185D01*
X8020050Y3390013D01*
X8014970Y3400427D01*
X8004556Y3410841D01*
X7994141Y3415921D01*
X7978647Y3421255D01*
X7952740Y3421255D01*
X7936991Y3415921D01*
X7926577Y3410841D01*
X7916163Y3400427D01*
X7911084Y3390013D01*
X7911084Y3369185D01*
X7911084Y3455545D02*
G01*
X8020050Y3455545D01*
X7911084Y3455545D02*
G01*
X7911084Y3502281D01*
X7916163Y3517775D01*
X7921497Y3523109D01*
X7931911Y3528189D01*
X7947406Y3528189D01*
X7957820Y3523109D01*
X7962900Y3517775D01*
X7968234Y3502281D01*
X7968234Y3455545D01*
X7911084Y3642489D02*
G01*
X8020050Y3642489D01*
X7911084Y3642489D02*
G01*
X7911084Y3689225D01*
X7916163Y3704719D01*
X7921497Y3710053D01*
X7931911Y3715133D01*
X7942325Y3715133D01*
X7952740Y3710053D01*
X7957820Y3704719D01*
X7962900Y3689225D01*
X7962900Y3642489D01*
X7962900Y3678811D02*
G01*
X8020050Y3715133D01*
X7911084Y3780665D02*
G01*
X7916163Y3770251D01*
X7926577Y3759837D01*
X7936991Y3754757D01*
X7952740Y3749423D01*
X7978647Y3749423D01*
X7994141Y3754757D01*
X8004556Y3759837D01*
X8014970Y3770251D01*
X8020050Y3780665D01*
X8020050Y3801493D01*
X8014970Y3811907D01*
X8004556Y3822321D01*
X7994141Y3827401D01*
X7978647Y3832735D01*
X7952740Y3832735D01*
X7936991Y3827401D01*
X7926577Y3822321D01*
X7916163Y3811907D01*
X7911084Y3801493D01*
X7911084Y3780665D01*
X7911084Y3867025D02*
G01*
X8020050Y3867025D01*
X7911084Y3867025D02*
G01*
X7911084Y3913761D01*
X7916163Y3929255D01*
X7921497Y3934589D01*
X7931911Y3939669D01*
X7942325Y3939669D01*
X7952740Y3934589D01*
X7957820Y3929255D01*
X7962900Y3913761D01*
X7962900Y3867025D02*
G01*
X7962900Y3913761D01*
X7968234Y3929255D01*
X7973313Y3934589D01*
X7983727Y3939669D01*
X7999475Y3939669D01*
X8009890Y3934589D01*
X8014970Y3929255D01*
X8020050Y3913761D01*
X8020050Y3867025D01*
X7911084Y4005201D02*
G01*
X7916163Y3994787D01*
X7926577Y3984373D01*
X7936991Y3979039D01*
X7952740Y3973959D01*
X7978647Y3973959D01*
X7994141Y3979039D01*
X8004556Y3984373D01*
X8014970Y3994787D01*
X8020050Y4005201D01*
X8020050Y4026029D01*
X8014970Y4036189D01*
X8004556Y4046603D01*
X7994141Y4051937D01*
X7978647Y4057017D01*
X7952740Y4057017D01*
X7936991Y4051937D01*
X7926577Y4046603D01*
X7916163Y4036189D01*
X7911084Y4026029D01*
X7911084Y4005201D01*
X7911084Y4127629D02*
G01*
X8020050Y4127629D01*
X7911084Y4091307D02*
G01*
X7911084Y4164205D01*
X2302243Y1372608D02*
G01*
X2260587Y1263642D01*
X2302243Y1372608D02*
G01*
X2343645Y1263642D01*
X2276081Y1299964D02*
G01*
X2328151Y1299964D01*
X2377935Y1372608D02*
G01*
X2450833Y1263642D01*
X2450833Y1372608D02*
G01*
X2377935Y1263642D01*
X2485123Y1372608D02*
G01*
X2485123Y1263642D01*
X2592057Y1357114D02*
G01*
X2581643Y1367528D01*
X2566149Y1372608D01*
X2545321Y1372608D01*
X2529827Y1367528D01*
X2519413Y1357114D01*
X2519413Y1346700D01*
X2524493Y1336286D01*
X2529827Y1330952D01*
X2539987Y1325872D01*
X2571229Y1315458D01*
X2581643Y1310378D01*
X2586977Y1305044D01*
X2592057Y1294630D01*
X2592057Y1279136D01*
X2581643Y1268722D01*
X2566149Y1263642D01*
X2545321Y1263642D01*
X2529827Y1268722D01*
X2519413Y1279136D01*
X2626347Y1351780D02*
G01*
X2636761Y1357114D01*
X2652255Y1372608D01*
X2652255Y1263642D01*
X2302245Y2642610D02*
G01*
X2260589Y2533644D01*
X2302245Y2642610D02*
G01*
X2343647Y2533644D01*
X2276083Y2569966D02*
G01*
X2328153Y2569966D01*
X2377937Y2642610D02*
G01*
X2450835Y2533644D01*
X2450835Y2642610D02*
G01*
X2377937Y2533644D01*
X2485125Y2642610D02*
G01*
X2485125Y2533644D01*
X2592059Y2627116D02*
G01*
X2581645Y2637530D01*
X2566151Y2642610D01*
X2545323Y2642610D01*
X2529829Y2637530D01*
X2519415Y2627116D01*
X2519415Y2616702D01*
X2524495Y2606288D01*
X2529829Y2600954D01*
X2539989Y2595874D01*
X2571231Y2585460D01*
X2581645Y2580380D01*
X2586979Y2575046D01*
X2592059Y2564632D01*
X2592059Y2549138D01*
X2581645Y2538724D01*
X2566151Y2533644D01*
X2545323Y2533644D01*
X2529829Y2538724D01*
X2519415Y2549138D01*
X2631429Y2616702D02*
G01*
X2631429Y2621782D01*
X2636763Y2632196D01*
X2641843Y2637530D01*
X2652257Y2642610D01*
X2673085Y2642610D01*
X2683499Y2637530D01*
X2688579Y2632196D01*
X2693913Y2621782D01*
X2693913Y2611368D01*
X2688579Y2600954D01*
X2678419Y2585460D01*
X2626349Y2533644D01*
X2698993Y2533644D01*
X2302243Y3950713D02*
G01*
X2260587Y3841747D01*
X2302243Y3950713D02*
G01*
X2343645Y3841747D01*
X2276081Y3878069D02*
G01*
X2328151Y3878069D01*
X2377935Y3950713D02*
G01*
X2450833Y3841747D01*
X2450833Y3950713D02*
G01*
X2377935Y3841747D01*
X2485123Y3950713D02*
G01*
X2485123Y3841747D01*
X2592057Y3935219D02*
G01*
X2581643Y3945633D01*
X2566149Y3950713D01*
X2545321Y3950713D01*
X2529827Y3945633D01*
X2519413Y3935219D01*
X2519413Y3924805D01*
X2524493Y3914391D01*
X2529827Y3909057D01*
X2539987Y3903977D01*
X2571229Y3893563D01*
X2581643Y3888483D01*
X2586977Y3883149D01*
X2592057Y3872735D01*
X2592057Y3857241D01*
X2581643Y3846827D01*
X2566149Y3841747D01*
X2545321Y3841747D01*
X2529827Y3846827D01*
X2519413Y3857241D01*
X2636761Y3950713D02*
G01*
X2693911Y3950713D01*
X2662669Y3909057D01*
X2678417Y3909057D01*
X2688577Y3903977D01*
X2693911Y3898897D01*
X2698991Y3883149D01*
X2698991Y3872735D01*
X2693911Y3857241D01*
X2683497Y3846827D01*
X2668003Y3841747D01*
X2652255Y3841747D01*
X2636761Y3846827D01*
X2631427Y3851907D01*
X2626347Y3862321D01*
X2289556Y5373237D02*
G01*
X2247900Y5264017D01*
X2289556Y5373237D02*
G01*
X2330958Y5264017D01*
X2263393Y5300339D02*
G01*
X2315463Y5300339D01*
X2365247Y5373237D02*
G01*
X2438145Y5264017D01*
X2438145Y5373237D02*
G01*
X2365247Y5264017D01*
X2472436Y5373237D02*
G01*
X2472436Y5264017D01*
X2579370Y5357489D02*
G01*
X2568956Y5367903D01*
X2553461Y5373237D01*
X2532634Y5373237D01*
X2517140Y5367903D01*
X2506725Y5357489D01*
X2506725Y5347075D01*
X2511806Y5336661D01*
X2517140Y5331581D01*
X2527300Y5326501D01*
X2558541Y5316087D01*
X2568956Y5310753D01*
X2574290Y5305673D01*
X2579370Y5295259D01*
X2579370Y5279511D01*
X2568956Y5269351D01*
X2553461Y5264017D01*
X2532634Y5264017D01*
X2517140Y5269351D01*
X2506725Y5279511D01*
X2665729Y5373237D02*
G01*
X2613659Y5300339D01*
X2691638Y5300339D01*
X2665729Y5373237D02*
G01*
X2665729Y5264017D01*
X7073900Y2274315D02*
G01*
X7073900Y2165350D01*
X7073900Y2274315D02*
G01*
X7120636Y2274315D01*
X7136129Y2269236D01*
X7141463Y2263902D01*
X7146543Y2253487D01*
X7146543Y2243073D01*
X7141463Y2232660D01*
X7136129Y2227579D01*
X7120636Y2222500D01*
X7073900Y2222500D02*
G01*
X7120636Y2222500D01*
X7136129Y2217165D01*
X7141463Y2212086D01*
X7146543Y2201671D01*
X7146543Y2185923D01*
X7141463Y2175510D01*
X7136129Y2170429D01*
X7120636Y2165350D01*
X7073900Y2165350D01*
X7180834Y2274315D02*
G01*
X7180834Y2196337D01*
X7186168Y2180844D01*
X7196581Y2170429D01*
X7212075Y2165350D01*
X7222490Y2165350D01*
X7237984Y2170429D01*
X7248397Y2180844D01*
X7253731Y2196337D01*
X7253731Y2274315D01*
X7360665Y2274315D02*
G01*
X7288022Y2165350D01*
X7288022Y2274315D02*
G01*
X7360665Y2274315D01*
X7288022Y2165350D02*
G01*
X7360665Y2165350D01*
X7467600Y2274315D02*
G01*
X7394956Y2165350D01*
X7394956Y2274315D02*
G01*
X7467600Y2274315D01*
X7394956Y2165350D02*
G01*
X7467600Y2165350D01*
X7501890Y2274315D02*
G01*
X7501890Y2165350D01*
X7501890Y2274315D02*
G01*
X7569454Y2274315D01*
X7501890Y2222500D02*
G01*
X7543545Y2222500D01*
X7501890Y2165350D02*
G01*
X7569454Y2165350D01*
X7603743Y2274315D02*
G01*
X7603743Y2165350D01*
X7603743Y2274315D02*
G01*
X7650479Y2274315D01*
X7666227Y2269236D01*
X7671308Y2263902D01*
X7676641Y2253487D01*
X7676641Y2243073D01*
X7671308Y2232660D01*
X7666227Y2227579D01*
X7650479Y2222500D01*
X7603743Y2222500D01*
X7640320Y2222500D02*
G01*
X7676641Y2165350D01*
X6210300Y2287015D02*
G01*
X6210300Y2178050D01*
X6210300Y2178050D02*
G01*
X6272529Y2178050D01*
X6306820Y2287015D02*
G01*
X6306820Y2178050D01*
X6306820Y2287015D02*
G01*
X6374384Y2287015D01*
X6306820Y2235200D02*
G01*
X6348475Y2235200D01*
X6306820Y2178050D02*
G01*
X6374384Y2178050D01*
X6408674Y2287015D02*
G01*
X6408674Y2178050D01*
X6408674Y2287015D02*
G01*
X6445250Y2287015D01*
X6460743Y2281936D01*
X6471158Y2271521D01*
X6476238Y2261107D01*
X6481572Y2245360D01*
X6481572Y2219452D01*
X6476238Y2203957D01*
X6471158Y2193544D01*
X6460743Y2183129D01*
X6445250Y2178050D01*
X6408674Y2178050D01*
X4649977Y2438907D02*
G01*
X4644643Y2449321D01*
X4634229Y2459736D01*
X4624070Y2464815D01*
X4603241Y2464815D01*
X4592827Y2459736D01*
X4582413Y2449321D01*
X4577079Y2438907D01*
X4572000Y2423160D01*
X4572000Y2397252D01*
X4577079Y2381757D01*
X4582413Y2371344D01*
X4592827Y2360929D01*
X4603241Y2355850D01*
X4624070Y2355850D01*
X4634229Y2360929D01*
X4644643Y2371344D01*
X4649977Y2381757D01*
X4684268Y2443987D02*
G01*
X4694681Y2449321D01*
X4710175Y2464815D01*
X4710175Y2355850D01*
X3240277Y5893307D02*
G01*
X3234943Y5903721D01*
X3224529Y5914136D01*
X3214370Y5919215D01*
X3193541Y5919215D01*
X3183127Y5914136D01*
X3172713Y5903721D01*
X3167379Y5893307D01*
X3162300Y5877560D01*
X3162300Y5851652D01*
X3167379Y5836157D01*
X3172713Y5825744D01*
X3183127Y5815329D01*
X3193541Y5810250D01*
X3214370Y5810250D01*
X3224529Y5815329D01*
X3234943Y5825744D01*
X3240277Y5836157D01*
X3336797Y5919215D02*
G01*
X3284981Y5919215D01*
X3279647Y5872479D01*
X3284981Y5877560D01*
X3300475Y5882894D01*
X3315970Y5882894D01*
X3331718Y5877560D01*
X3342131Y5867400D01*
X3347211Y5851652D01*
X3347211Y5841237D01*
X3342131Y5825744D01*
X3331718Y5815329D01*
X3315970Y5810250D01*
X3300475Y5810250D01*
X3284981Y5815329D01*
X3279647Y5820410D01*
X3274568Y5830823D01*
X7238491Y2788676D02*
G01*
X7228077Y2783342D01*
X7217663Y2772928D01*
X7212584Y2762768D01*
X7212584Y2741940D01*
X7217663Y2731526D01*
X7228077Y2721112D01*
X7238491Y2715778D01*
X7254240Y2710698D01*
X7280147Y2710698D01*
X7295641Y2715778D01*
X7306056Y2721112D01*
X7316470Y2731526D01*
X7321550Y2741940D01*
X7321550Y2762768D01*
X7316470Y2772928D01*
X7306056Y2783342D01*
X7295641Y2788676D01*
X7228077Y2885196D02*
G01*
X7217663Y2880116D01*
X7212584Y2864368D01*
X7212584Y2854208D01*
X7217663Y2838460D01*
X7233411Y2828046D01*
X7259320Y2822966D01*
X7285227Y2822966D01*
X7306056Y2828046D01*
X7316470Y2838460D01*
X7321550Y2854208D01*
X7321550Y2859288D01*
X7316470Y2874782D01*
X7306056Y2885196D01*
X7290561Y2890530D01*
X7285227Y2890530D01*
X7269734Y2885196D01*
X7259320Y2874782D01*
X7254240Y2859288D01*
X7254240Y2854208D01*
X7259320Y2838460D01*
X7269734Y2828046D01*
X7285227Y2822966D01*
X5018277Y1930907D02*
G01*
X5012943Y1941321D01*
X5002529Y1951736D01*
X4992370Y1956815D01*
X4971541Y1956815D01*
X4961127Y1951736D01*
X4950713Y1941321D01*
X4945379Y1930907D01*
X4940300Y1915160D01*
X4940300Y1889252D01*
X4945379Y1873757D01*
X4950713Y1863344D01*
X4961127Y1852929D01*
X4971541Y1847850D01*
X4992370Y1847850D01*
X5002529Y1852929D01*
X5012943Y1863344D01*
X5018277Y1873757D01*
X5052568Y1956815D02*
G01*
X5052568Y1847850D01*
X5052568Y1956815D02*
G01*
X5125211Y1847850D01*
X5125211Y1956815D02*
G01*
X5125211Y1847850D01*
X5164836Y1930907D02*
G01*
X5164836Y1935987D01*
X5169915Y1946402D01*
X5175250Y1951736D01*
X5185409Y1956815D01*
X5206238Y1956815D01*
X5216652Y1951736D01*
X5221986Y1946402D01*
X5227065Y1935987D01*
X5227065Y1925573D01*
X5221986Y1915160D01*
X5211572Y1899665D01*
X5159502Y1847850D01*
X5232400Y1847850D01*
X5562587Y2671272D02*
G01*
X5562587Y2562306D01*
X5562587Y2671272D02*
G01*
X5598909Y2671272D01*
X5614657Y2666192D01*
X5624817Y2655778D01*
X5630151Y2645364D01*
X5635231Y2629616D01*
X5635231Y2603708D01*
X5630151Y2588214D01*
X5624817Y2577800D01*
X5614657Y2567386D01*
X5598909Y2562306D01*
X5562587Y2562306D01*
X5669521Y2650444D02*
G01*
X5679935Y2655778D01*
X5695683Y2671272D01*
X5695683Y2562306D01*
X6654043Y5804915D02*
G01*
X6654043Y5721857D01*
X6648709Y5706110D01*
X6643629Y5701029D01*
X6633215Y5695950D01*
X6622801Y5695950D01*
X6612387Y5701029D01*
X6607053Y5706110D01*
X6601973Y5721857D01*
X6601973Y5732271D01*
X6719321Y5804915D02*
G01*
X6708907Y5799836D01*
X6698493Y5789421D01*
X6693413Y5779007D01*
X6688333Y5763260D01*
X6688333Y5737352D01*
X6693413Y5721857D01*
X6698493Y5711444D01*
X6708907Y5701029D01*
X6719321Y5695950D01*
X6740149Y5695950D01*
X6750563Y5701029D01*
X6760977Y5711444D01*
X6766057Y5721857D01*
X6771391Y5737352D01*
X6771391Y5763260D01*
X6766057Y5779007D01*
X6760977Y5789421D01*
X6750563Y5799836D01*
X6740149Y5804915D01*
X6719321Y5804915D01*
X6805681Y5804915D02*
G01*
X6847083Y5753100D01*
X6847083Y5695950D01*
X6888739Y5804915D02*
G01*
X6847083Y5753100D01*
X6995673Y5789421D02*
G01*
X6985513Y5799836D01*
X6969765Y5804915D01*
X6948937Y5804915D01*
X6933443Y5799836D01*
X6923029Y5789421D01*
X6923029Y5779007D01*
X6928363Y5768594D01*
X6933443Y5763260D01*
X6943857Y5758179D01*
X6975099Y5747765D01*
X6985513Y5742686D01*
X6990593Y5737352D01*
X6995673Y5726937D01*
X6995673Y5711444D01*
X6985513Y5701029D01*
X6969765Y5695950D01*
X6948937Y5695950D01*
X6933443Y5701029D01*
X6923029Y5711444D01*
X7066539Y5804915D02*
G01*
X7066539Y5695950D01*
X7029963Y5804915D02*
G01*
X7102861Y5804915D01*
X7137151Y5804915D02*
G01*
X7137151Y5695950D01*
X7249419Y5779007D02*
G01*
X7244085Y5789421D01*
X7233671Y5799836D01*
X7223257Y5804915D01*
X7202683Y5804915D01*
X7192269Y5799836D01*
X7181855Y5789421D01*
X7176521Y5779007D01*
X7171441Y5763260D01*
X7171441Y5737352D01*
X7176521Y5721857D01*
X7181855Y5711444D01*
X7192269Y5701029D01*
X7202683Y5695950D01*
X7223257Y5695950D01*
X7233671Y5701029D01*
X7244085Y5711444D01*
X7249419Y5721857D01*
X7283709Y5804915D02*
G01*
X7283709Y5695950D01*
X7356353Y5804915D02*
G01*
X7283709Y5732271D01*
X7309617Y5758179D02*
G01*
X7356353Y5695950D01*
X7390643Y5784087D02*
G01*
X7401057Y5789421D01*
X7416551Y5804915D01*
X7416551Y5695950D01*
X6643370Y4954015D02*
G01*
X6643370Y4870957D01*
X6638036Y4855210D01*
X6632956Y4850129D01*
X6622541Y4845050D01*
X6612127Y4845050D01*
X6601713Y4850129D01*
X6596379Y4855210D01*
X6591300Y4870957D01*
X6591300Y4881371D01*
X6708647Y4954015D02*
G01*
X6698234Y4948936D01*
X6687820Y4938521D01*
X6682740Y4928107D01*
X6677659Y4912360D01*
X6677659Y4886452D01*
X6682740Y4870957D01*
X6687820Y4860544D01*
X6698234Y4850129D01*
X6708647Y4845050D01*
X6729475Y4845050D01*
X6739890Y4850129D01*
X6750304Y4860544D01*
X6755384Y4870957D01*
X6760718Y4886452D01*
X6760718Y4912360D01*
X6755384Y4928107D01*
X6750304Y4938521D01*
X6739890Y4948936D01*
X6729475Y4954015D01*
X6708647Y4954015D01*
X6795008Y4954015D02*
G01*
X6836409Y4902200D01*
X6836409Y4845050D01*
X6878065Y4954015D02*
G01*
X6836409Y4902200D01*
X6985000Y4938521D02*
G01*
X6974840Y4948936D01*
X6959091Y4954015D01*
X6938263Y4954015D01*
X6922770Y4948936D01*
X6912356Y4938521D01*
X6912356Y4928107D01*
X6917690Y4917694D01*
X6922770Y4912360D01*
X6933184Y4907279D01*
X6964425Y4896865D01*
X6974840Y4891786D01*
X6979920Y4886452D01*
X6985000Y4876037D01*
X6985000Y4860544D01*
X6974840Y4850129D01*
X6959091Y4845050D01*
X6938263Y4845050D01*
X6922770Y4850129D01*
X6912356Y4860544D01*
X7055865Y4954015D02*
G01*
X7055865Y4845050D01*
X7019290Y4954015D02*
G01*
X7092188Y4954015D01*
X7126477Y4954015D02*
G01*
X7126477Y4845050D01*
X7238745Y4928107D02*
G01*
X7233411Y4938521D01*
X7222997Y4948936D01*
X7212584Y4954015D01*
X7192009Y4954015D01*
X7181595Y4948936D01*
X7171181Y4938521D01*
X7165847Y4928107D01*
X7160768Y4912360D01*
X7160768Y4886452D01*
X7165847Y4870957D01*
X7171181Y4860544D01*
X7181595Y4850129D01*
X7192009Y4845050D01*
X7212584Y4845050D01*
X7222997Y4850129D01*
X7233411Y4860544D01*
X7238745Y4870957D01*
X7273036Y4954015D02*
G01*
X7273036Y4845050D01*
X7345679Y4954015D02*
G01*
X7273036Y4881371D01*
X7298943Y4907279D02*
G01*
X7345679Y4845050D01*
X7385050Y4928107D02*
G01*
X7385050Y4933187D01*
X7390384Y4943602D01*
X7395463Y4948936D01*
X7405877Y4954015D01*
X7426706Y4954015D01*
X7437120Y4948936D01*
X7442200Y4943602D01*
X7447534Y4933187D01*
X7447534Y4922773D01*
X7442200Y4912360D01*
X7432040Y4896865D01*
X7379970Y4845050D01*
X7452613Y4845050D01*
X4958293Y6566918D02*
G01*
X4958293Y6457952D01*
X4958293Y6457952D02*
G01*
X5020523Y6457952D01*
X5054813Y6546090D02*
G01*
X5065227Y6551424D01*
X5080975Y6566918D01*
X5080975Y6457952D01*
D11*
X4639193Y4557092D02*
G01*
X4639193Y4461588D01*
X4639193Y4557092D02*
G01*
X4698375Y4557092D01*
X4639193Y4511626D02*
G01*
X4675769Y4511626D01*
X4639193Y4461588D02*
G01*
X4698375Y4461588D01*
X4792101Y4543376D02*
G01*
X4782957Y4552520D01*
X4769241Y4557092D01*
X4751207Y4557092D01*
X4737491Y4552520D01*
X4728347Y4543376D01*
X4728347Y4534486D01*
X4732919Y4525342D01*
X4737491Y4520770D01*
X4746635Y4516198D01*
X4773813Y4507054D01*
X4782957Y4502482D01*
X4787529Y4497910D01*
X4792101Y4489020D01*
X4792101Y4475304D01*
X4782957Y4466160D01*
X4769241Y4461588D01*
X4751207Y4461588D01*
X4737491Y4466160D01*
X4728347Y4475304D01*
X4822073Y4557092D02*
G01*
X4822073Y4461588D01*
X4822073Y4557092D02*
G01*
X4862967Y4557092D01*
X4876683Y4552520D01*
X4881001Y4547948D01*
X4885573Y4538804D01*
X4885573Y4525342D01*
X4881001Y4516198D01*
X4876683Y4511626D01*
X4862967Y4507054D01*
X4822073Y4507054D01*
X4924689Y4557092D02*
G01*
X4974727Y4557092D01*
X4947549Y4520770D01*
X4961011Y4520770D01*
X4970155Y4516198D01*
X4974727Y4511626D01*
X4979299Y4497910D01*
X4979299Y4489020D01*
X4974727Y4475304D01*
X4965583Y4466160D01*
X4952121Y4461588D01*
X4938405Y4461588D01*
X4924689Y4466160D01*
X4920117Y4470732D01*
X4915545Y4479876D01*
X5013843Y4534486D02*
G01*
X5013843Y4538804D01*
X5018415Y4547948D01*
X5022987Y4552520D01*
X5032131Y4557092D01*
X5050165Y4557092D01*
X5059309Y4552520D01*
X5063881Y4547948D01*
X5068453Y4538804D01*
X5068453Y4529914D01*
X5063881Y4520770D01*
X5054737Y4507054D01*
X5009271Y4461588D01*
X5073025Y4461588D01*
X5102997Y4502482D02*
G01*
X5184785Y4502482D01*
X5269367Y4511626D02*
G01*
X5260223Y4520770D01*
X5251079Y4525342D01*
X5237363Y4525342D01*
X5228473Y4520770D01*
X5219329Y4511626D01*
X5214757Y4497910D01*
X5214757Y4489020D01*
X5219329Y4475304D01*
X5228473Y4466160D01*
X5237363Y4461588D01*
X5251079Y4461588D01*
X5260223Y4466160D01*
X5269367Y4475304D01*
X5308483Y4557092D02*
G01*
X5358267Y4557092D01*
X5331089Y4520770D01*
X5344805Y4520770D01*
X5353949Y4516198D01*
X5358267Y4511626D01*
X5362839Y4497910D01*
X5362839Y4489020D01*
X5358267Y4475304D01*
X5349377Y4466160D01*
X5335661Y4461588D01*
X5321945Y4461588D01*
X5308483Y4466160D01*
X5303911Y4470732D01*
X5299339Y4479876D01*
X4702947Y4341954D02*
G01*
X4693803Y4350844D01*
X4680087Y4355416D01*
X4662053Y4355416D01*
X4648337Y4350844D01*
X4639193Y4341954D01*
X4639193Y4332810D01*
X4643765Y4323666D01*
X4648337Y4319094D01*
X4657481Y4314522D01*
X4684659Y4305632D01*
X4693803Y4301060D01*
X4698375Y4296488D01*
X4702947Y4287344D01*
X4702947Y4273628D01*
X4693803Y4264484D01*
X4680087Y4260166D01*
X4662053Y4260166D01*
X4648337Y4264484D01*
X4639193Y4273628D01*
X4732919Y4323666D02*
G01*
X4732919Y4278200D01*
X4737491Y4264484D01*
X4746635Y4260166D01*
X4760097Y4260166D01*
X4769241Y4264484D01*
X4782957Y4278200D01*
X4782957Y4323666D02*
G01*
X4782957Y4260166D01*
X4812929Y4323666D02*
G01*
X4812929Y4228162D01*
X4812929Y4309950D02*
G01*
X4822073Y4319094D01*
X4831217Y4323666D01*
X4844679Y4323666D01*
X4853823Y4319094D01*
X4862967Y4309950D01*
X4867539Y4296488D01*
X4867539Y4287344D01*
X4862967Y4273628D01*
X4853823Y4264484D01*
X4844679Y4260166D01*
X4831217Y4260166D01*
X4822073Y4264484D01*
X4812929Y4273628D01*
X4897511Y4296488D02*
G01*
X4952121Y4296488D01*
X4952121Y4305632D01*
X4947549Y4314522D01*
X4942977Y4319094D01*
X4933833Y4323666D01*
X4920117Y4323666D01*
X4911227Y4319094D01*
X4902083Y4309950D01*
X4897511Y4296488D01*
X4897511Y4287344D01*
X4902083Y4273628D01*
X4911227Y4264484D01*
X4920117Y4260166D01*
X4933833Y4260166D01*
X4942977Y4264484D01*
X4952121Y4273628D01*
X4982093Y4323666D02*
G01*
X4982093Y4260166D01*
X4982093Y4296488D02*
G01*
X4986665Y4309950D01*
X4995555Y4319094D01*
X5004699Y4323666D01*
X5018415Y4323666D01*
X5048387Y4323666D02*
G01*
X5048387Y4260166D01*
X5048387Y4305632D02*
G01*
X5062103Y4319094D01*
X5070993Y4323666D01*
X5084709Y4323666D01*
X5093853Y4319094D01*
X5098425Y4305632D01*
X5098425Y4260166D01*
X5098425Y4305632D02*
G01*
X5112141Y4319094D01*
X5121031Y4323666D01*
X5134747Y4323666D01*
X5143891Y4319094D01*
X5148463Y4305632D01*
X5148463Y4260166D01*
X5178435Y4355416D02*
G01*
X5183007Y4350844D01*
X5187579Y4355416D01*
X5183007Y4359988D01*
X5178435Y4355416D01*
X5183007Y4323666D02*
G01*
X5183007Y4260166D01*
X5217551Y4323666D02*
G01*
X5217551Y4260166D01*
X5217551Y4305632D02*
G01*
X5231013Y4319094D01*
X5240157Y4323666D01*
X5253873Y4323666D01*
X5263017Y4319094D01*
X5267589Y4305632D01*
X5267589Y4260166D01*
X5297561Y4355416D02*
G01*
X5302133Y4350844D01*
X5306451Y4355416D01*
X5302133Y4359988D01*
X5297561Y4355416D01*
X5302133Y4323666D02*
G01*
X5302133Y4260166D01*
X5478053Y6057038D02*
G01*
X5432587Y6057038D01*
X5428015Y6016144D01*
X5432587Y6020716D01*
X5446303Y6025288D01*
X5459765Y6025288D01*
X5473481Y6020716D01*
X5482625Y6011572D01*
X5487197Y5998110D01*
X5487197Y5988966D01*
X5482625Y5975250D01*
X5473481Y5966106D01*
X5459765Y5961534D01*
X5446303Y5961534D01*
X5432587Y5966106D01*
X5428015Y5970678D01*
X5423443Y5979822D01*
X5517169Y6057038D02*
G01*
X5553491Y5961534D01*
X5589813Y6057038D02*
G01*
X5553491Y5961534D01*
X5591769Y5784496D02*
G01*
X5587197Y5793386D01*
X5578053Y5802530D01*
X5568909Y5807102D01*
X5550875Y5807102D01*
X5541731Y5802530D01*
X5532587Y5793386D01*
X5528015Y5784496D01*
X5523443Y5770780D01*
X5523443Y5747920D01*
X5528015Y5734458D01*
X5532587Y5725314D01*
X5541731Y5716170D01*
X5550875Y5711598D01*
X5568909Y5711598D01*
X5578053Y5716170D01*
X5587197Y5725314D01*
X5591769Y5734458D01*
X5591769Y5747920D01*
X5568909Y5747920D02*
G01*
X5591769Y5747920D01*
X5432663Y5557166D02*
G01*
X5482701Y5557166D01*
X5455269Y5520844D01*
X5468985Y5520844D01*
X5478129Y5516272D01*
X5482701Y5511700D01*
X5487019Y5497984D01*
X5487019Y5488840D01*
X5482701Y5475378D01*
X5473557Y5466234D01*
X5459841Y5461662D01*
X5446125Y5461662D01*
X5432663Y5466234D01*
X5428091Y5470806D01*
X5423519Y5479950D01*
X5521563Y5484268D02*
G01*
X5517245Y5479950D01*
X5521563Y5475378D01*
X5526135Y5479950D01*
X5521563Y5484268D01*
X5565251Y5557166D02*
G01*
X5615289Y5557166D01*
X5588111Y5520844D01*
X5601573Y5520844D01*
X5610717Y5516272D01*
X5615289Y5511700D01*
X5619861Y5497984D01*
X5619861Y5488840D01*
X5615289Y5475378D01*
X5606145Y5466234D01*
X5592683Y5461662D01*
X5578967Y5461662D01*
X5565251Y5466234D01*
X5560679Y5470806D01*
X5556107Y5479950D01*
D10*
X6724131Y4103115D02*
G01*
X6713717Y4098036D01*
X6703303Y4087621D01*
X6697969Y4077207D01*
X6692889Y4061460D01*
X6692889Y4035552D01*
X6697969Y4020057D01*
X6703303Y4009644D01*
X6713717Y3999229D01*
X6724131Y3994150D01*
X6744959Y3994150D01*
X6755119Y3999229D01*
X6765533Y4009644D01*
X6770867Y4020057D01*
X6775947Y4035552D01*
X6775947Y4061460D01*
X6770867Y4077207D01*
X6765533Y4087621D01*
X6755119Y4098036D01*
X6744959Y4103115D01*
X6724131Y4103115D01*
X6810237Y4103115D02*
G01*
X6810237Y3994150D01*
X6810237Y3994150D02*
G01*
X6872721Y3994150D01*
X6907011Y4103115D02*
G01*
X6907011Y3994150D01*
X6907011Y4103115D02*
G01*
X6974575Y4103115D01*
X6907011Y4051300D02*
G01*
X6948413Y4051300D01*
X6907011Y3994150D02*
G01*
X6974575Y3994150D01*
X7008865Y4103115D02*
G01*
X7008865Y3994150D01*
X7008865Y4103115D02*
G01*
X7045187Y4103115D01*
X7060681Y4098036D01*
X7071095Y4087621D01*
X7076429Y4077207D01*
X7081509Y4061460D01*
X7081509Y4035552D01*
X7076429Y4020057D01*
X7071095Y4009644D01*
X7060681Y3999229D01*
X7045187Y3994150D01*
X7008865Y3994150D01*
X6235700Y1245615D02*
G01*
X6235700Y1136650D01*
X6235700Y1245615D02*
G01*
X6282436Y1245615D01*
X6297929Y1240536D01*
X6303263Y1235202D01*
X6308343Y1224787D01*
X6308343Y1214373D01*
X6303263Y1203960D01*
X6297929Y1198879D01*
X6282436Y1193800D01*
X6235700Y1193800D01*
X6272022Y1193800D02*
G01*
X6308343Y1136650D01*
X6342634Y1224787D02*
G01*
X6353047Y1230121D01*
X6368795Y1245615D01*
X6368795Y1136650D01*
X7302500Y1245615D02*
G01*
X7302500Y1136650D01*
X7302500Y1245615D02*
G01*
X7349236Y1245615D01*
X7364729Y1240536D01*
X7370063Y1235202D01*
X7375143Y1224787D01*
X7375143Y1214373D01*
X7370063Y1203960D01*
X7364729Y1198879D01*
X7349236Y1193800D01*
X7302500Y1193800D01*
X7338822Y1193800D02*
G01*
X7375143Y1136650D01*
X7414768Y1219707D02*
G01*
X7414768Y1224787D01*
X7419847Y1235202D01*
X7425181Y1240536D01*
X7435595Y1245615D01*
X7456170Y1245615D01*
X7466584Y1240536D01*
X7471918Y1235202D01*
X7476997Y1224787D01*
X7476997Y1214373D01*
X7471918Y1203960D01*
X7461504Y1188465D01*
X7409434Y1136650D01*
X7482331Y1136650D01*
X6808492Y2717800D02*
G01*
X6917458Y2717800D01*
X6808492Y2717800D02*
G01*
X6808492Y2764536D01*
X6813572Y2780029D01*
X6818906Y2785363D01*
X6829320Y2790444D01*
X6839734Y2790444D01*
X6850148Y2785363D01*
X6855228Y2780029D01*
X6860308Y2764536D01*
X6860308Y2717800D01*
X6860308Y2754121D02*
G01*
X6917458Y2790444D01*
X6808492Y2835147D02*
G01*
X6808492Y2892297D01*
X6850148Y2861310D01*
X6850148Y2876804D01*
X6855228Y2887218D01*
X6860308Y2892297D01*
X6876056Y2897631D01*
X6886470Y2897631D01*
X6901964Y2892297D01*
X6912378Y2881884D01*
X6917458Y2866389D01*
X6917458Y2850895D01*
X6912378Y2835147D01*
X6907298Y2830068D01*
X6896884Y2824734D01*
X6399784Y2705100D02*
G01*
X6508750Y2705100D01*
X6399784Y2705100D02*
G01*
X6399784Y2751836D01*
X6404863Y2767329D01*
X6410197Y2772663D01*
X6420611Y2777744D01*
X6431025Y2777744D01*
X6441440Y2772663D01*
X6446520Y2767329D01*
X6451600Y2751836D01*
X6451600Y2705100D01*
X6451600Y2741421D02*
G01*
X6508750Y2777744D01*
X6399784Y2864104D02*
G01*
X6472427Y2812034D01*
X6472427Y2890012D01*
X6399784Y2864104D02*
G01*
X6508750Y2864104D01*
G36*
X5833770Y2769006D02*
G01*
X5833770Y2488996D01*
X5913780Y2488996D01*
X5913780Y2769006D01*
G37*
D12*
X2803911Y1302699D02*
G01*
X2755971Y1302699D01*
X2755971Y1297736D01*
X2803911Y1242702D02*
G01*
X2755971Y1242702D01*
X2755971Y1243129D01*
X3760510Y1306629D02*
G01*
X3713909Y1306629D01*
X3713909Y1302699D01*
X3760510Y1249479D02*
G01*
X3713909Y1249479D01*
X3713909Y1252697D01*
X3760510Y1623057D02*
G01*
X2767312Y1623057D01*
X3594115Y1089657D02*
G01*
X3594115Y1038857D01*
X3441715Y1089657D02*
G01*
X3441715Y1038857D01*
X2933646Y1089657D02*
G01*
X2933646Y1061714D01*
X2933646Y1038857D01*
X3086115Y1089657D02*
G01*
X3086115Y1038857D01*
X2767312Y1038857D02*
G01*
X3760510Y1038857D01*
X2755971Y1623057D02*
G01*
X2755971Y1038857D01*
X3760510Y1038857D02*
G01*
X3760510Y1623057D01*
X3708387Y1089660D02*
G01*
X2806687Y1089660D01*
X2806687Y1572260D01*
X3708387Y1572260D01*
X3708387Y1089660D01*
X2803913Y2593809D02*
G01*
X2755973Y2593809D01*
X2755973Y2588846D01*
X2803913Y2533812D02*
G01*
X2755973Y2533812D01*
X2755973Y2534239D01*
X3760513Y2597739D02*
G01*
X3713911Y2597739D01*
X3713911Y2593809D01*
X3760513Y2540589D02*
G01*
X3713911Y2540589D01*
X3713911Y2543807D01*
X3760513Y2914167D02*
G01*
X2767314Y2914167D01*
X3594117Y2380767D02*
G01*
X3594117Y2329967D01*
X3441717Y2380767D02*
G01*
X3441717Y2329967D01*
X2933649Y2380767D02*
G01*
X2933649Y2352824D01*
X2933649Y2329967D01*
X3086117Y2380767D02*
G01*
X3086117Y2329967D01*
X2767314Y2329967D02*
G01*
X3760513Y2329967D01*
X2755973Y2914167D02*
G01*
X2755973Y2329967D01*
X3760513Y2329967D02*
G01*
X3760513Y2914167D01*
X3708389Y2380769D02*
G01*
X2806689Y2380769D01*
X2806689Y2863369D01*
X3708389Y2863369D01*
X3708389Y2380769D01*
X2803911Y3884919D02*
G01*
X2755971Y3884919D01*
X2755971Y3879956D01*
X2803911Y3824922D02*
G01*
X2755971Y3824922D01*
X2755971Y3825349D01*
X3760510Y3888849D02*
G01*
X3713909Y3888849D01*
X3713909Y3884919D01*
X3760510Y3831699D02*
G01*
X3713909Y3831699D01*
X3713909Y3834917D01*
X3760510Y4205277D02*
G01*
X2767312Y4205277D01*
X3594115Y3671877D02*
G01*
X3594115Y3621077D01*
X3441715Y3671877D02*
G01*
X3441715Y3621077D01*
X2933646Y3671877D02*
G01*
X2933646Y3643934D01*
X2933646Y3621077D01*
X3086115Y3671877D02*
G01*
X3086115Y3621077D01*
X2767312Y3621077D02*
G01*
X3760510Y3621077D01*
X2755971Y4205277D02*
G01*
X2755971Y3621077D01*
X3760510Y3621077D02*
G01*
X3760510Y4205277D01*
X3708387Y3671879D02*
G01*
X2806687Y3671879D01*
X2806687Y4154479D01*
X3708387Y4154479D01*
X3708387Y3671879D01*
X2803911Y5176032D02*
G01*
X2755971Y5176032D01*
X2755971Y5171069D01*
X2803911Y5116034D02*
G01*
X2755971Y5116034D01*
X2755971Y5116461D01*
X3760510Y5179961D02*
G01*
X3713909Y5179961D01*
X3713909Y5176032D01*
X3760510Y5122811D02*
G01*
X3713909Y5122811D01*
X3713909Y5126029D01*
X3760510Y5496389D02*
G01*
X2767312Y5496389D01*
X3594115Y4962989D02*
G01*
X3594115Y4912189D01*
X3441715Y4962989D02*
G01*
X3441715Y4912189D01*
X2933646Y4962989D02*
G01*
X2933646Y4935047D01*
X2933646Y4912189D01*
X3086115Y4962989D02*
G01*
X3086115Y4912189D01*
X2767312Y4912189D02*
G01*
X3760510Y4912189D01*
X2755971Y5496389D02*
G01*
X2755971Y4912189D01*
X3760510Y4912189D02*
G01*
X3760510Y5496389D01*
X3708387Y4962992D02*
G01*
X2806687Y4962992D01*
X2806687Y5445592D01*
X3708387Y5445592D01*
X3708387Y4962992D01*
X7708900Y1511300D02*
G01*
X7708900Y1536700D01*
X6972300Y1511300D02*
G01*
X6972300Y1536700D01*
X7708900Y1511300D02*
G01*
X7594600Y1511300D01*
X7213600Y1511300D02*
G01*
X7467600Y1511300D01*
X6972300Y1511300D02*
G01*
X7073900Y1511300D01*
X6972300Y1651000D02*
G01*
X6972300Y2095500D01*
X6972300Y2095500D02*
G01*
X7708900Y2095500D01*
X7708900Y1651000D01*
X6743700Y1524000D02*
G01*
X6743700Y1549400D01*
X6007100Y1524000D02*
G01*
X6007100Y1549400D01*
X6743700Y1524000D02*
G01*
X6629400Y1524000D01*
X6248400Y1524000D02*
G01*
X6502400Y1524000D01*
X6007100Y1524000D02*
G01*
X6108700Y1524000D01*
X6007100Y1663700D02*
G01*
X6007100Y2108200D01*
X6007100Y2108200D02*
G01*
X6743700Y2108200D01*
X6743700Y1663700D01*
X4417748Y2137092D02*
G01*
X4400224Y2137092D01*
X4398190Y2137092D01*
X4283128Y2137092D01*
X4350397Y2199289D02*
G01*
X4350397Y2074826D01*
X4343389Y2724094D02*
G01*
X4343389Y2599631D01*
X3608245Y1876511D02*
G01*
X2908246Y1876511D01*
X2908246Y2076510D01*
X3608245Y2076510D01*
X3608245Y1876511D01*
X3608245Y3167626D02*
G01*
X2908246Y3167626D01*
X2908246Y3367625D01*
X3608245Y3367625D01*
X3608245Y3167626D01*
X3608245Y4458733D02*
G01*
X2908246Y4458733D01*
X2908246Y4658733D01*
X3608245Y4658733D01*
X3608245Y4458733D01*
X3608245Y5749843D02*
G01*
X2908246Y5749843D01*
X2908246Y5949843D01*
X3608245Y5949843D01*
X3608245Y5749843D01*
X7162800Y2443998D02*
G01*
X7162800Y3143996D01*
X7362799Y3143996D01*
X7362799Y2443998D01*
X7162800Y2443998D01*
X4361713Y1787499D02*
G01*
X5569686Y1787499D01*
X4356100Y1787499D02*
G01*
X4356100Y387502D01*
X5575300Y1787499D02*
G01*
X5575300Y387502D01*
X4361713Y387502D02*
G01*
X5569686Y387502D01*
X4356125Y520598D02*
G01*
X5564098Y520598D01*
X4356125Y596798D02*
G01*
X5564098Y596798D01*
X6108799Y2488905D02*
G01*
X6298796Y2488905D01*
X5168800Y2488900D02*
G01*
X4978803Y2488900D01*
X5073279Y2583487D02*
G01*
X5073279Y2393490D01*
D13*
X5903821Y2768904D02*
G01*
X5373801Y2768904D01*
X5373801Y2488895D01*
X5903821Y2488895D01*
D12*
X7751396Y5645200D02*
G01*
X6269400Y5645200D01*
X6269403Y5645200D02*
G01*
X6269400Y5070203D01*
X6269400Y5070203D02*
G01*
X7751396Y5070203D01*
X7751396Y5070200D02*
G01*
X7751396Y5645200D01*
X7543800Y5638800D02*
G01*
X7543800Y5588000D01*
X6477000Y5588000D01*
X6477000Y5638800D01*
X6477000Y5638800D01*
X7764096Y4781600D02*
G01*
X6282100Y4781600D01*
X6282103Y4781600D02*
G01*
X6282100Y4206603D01*
X6282100Y4206603D02*
G01*
X7764096Y4206603D01*
X7764096Y4206600D02*
G01*
X7764096Y4781600D01*
X7556500Y4775200D02*
G01*
X7556500Y4724400D01*
X6489700Y4724400D01*
X6489700Y4775200D01*
X6489700Y4775200D01*
X4789289Y5006202D02*
G01*
X4989296Y5206202D01*
X5189291Y5006202D01*
X4989296Y4806203D01*
X4789289Y5006202D01*
X4065711Y6203800D02*
G01*
X5865708Y6203800D01*
X5865708Y3903804D01*
X4065711Y3903804D01*
X4065711Y6203800D01*
X4503709Y6419801D02*
G01*
X5399796Y6419801D01*
X5399796Y5719803D01*
X4503709Y5719803D01*
X4503709Y6419801D01*
X4589307Y5556201D02*
G01*
X4889306Y5556201D01*
X4889306Y5356202D01*
X4589307Y5356202D01*
X4589307Y5556201D01*
X5039293Y5556201D02*
G01*
X5339293Y5556201D01*
X5339293Y5356202D01*
X5039293Y5356202D01*
X5039293Y5556201D01*
X4853696Y4069793D02*
G01*
X5153695Y4069793D01*
X5153695Y3919781D01*
X4853696Y3919781D01*
X4853696Y4069793D01*
X7542804Y3898900D02*
G01*
X7542804Y3924300D01*
X7415804Y3924300D01*
X6298204Y3340100D02*
G01*
X6298204Y3784600D01*
X6450604Y3924300D02*
G01*
X6298204Y3924300D01*
X6298204Y3898900D01*
X7199904Y3924300D02*
G01*
X6666504Y3924300D01*
X6298204Y3340100D02*
G01*
X7542804Y3340100D01*
X7542804Y3784600D01*
X6111499Y1171785D02*
G01*
X6044199Y1171785D01*
X6044199Y1213799D01*
X6111499Y1213799D01*
X6111499Y1215999D01*
X6486900Y1173665D02*
G01*
X6554198Y1173665D01*
X6554198Y1213799D01*
X6486900Y1213799D01*
X6486900Y1215999D01*
X6486900Y1308801D02*
G01*
X6111499Y1308801D01*
X6486900Y1078798D02*
G01*
X6111499Y1078798D01*
X6111499Y1078798D02*
G01*
X6111499Y1308801D01*
X6486900Y1078798D02*
G01*
X6486900Y1308801D01*
X7190999Y1171785D02*
G01*
X7123699Y1171785D01*
X7123699Y1213799D01*
X7190999Y1213799D01*
X7190999Y1215999D01*
X7566400Y1173665D02*
G01*
X7633698Y1173665D01*
X7633698Y1213799D01*
X7566400Y1213799D01*
X7566400Y1215999D01*
X7566400Y1308801D02*
G01*
X7190999Y1308801D01*
X7566400Y1078798D02*
G01*
X7190999Y1078798D01*
X7190999Y1078798D02*
G01*
X7190999Y1308801D01*
X7566400Y1078798D02*
G01*
X7566400Y1308801D01*
X6849038Y2981700D02*
G01*
X6849038Y3049000D01*
X6891053Y3049000D01*
X6891053Y2981700D01*
X6893252Y2981700D01*
X6850918Y2606299D02*
G01*
X6850918Y2539001D01*
X6891053Y2539001D01*
X6891053Y2606299D01*
X6893252Y2606299D01*
X6986054Y2606299D02*
G01*
X6986054Y2981700D01*
X6756052Y2606299D02*
G01*
X6756052Y2981700D01*
X6756052Y2981700D02*
G01*
X6986054Y2981700D01*
X6756052Y2606299D02*
G01*
X6986054Y2606299D01*
X6442285Y2981700D02*
G01*
X6442285Y3049000D01*
X6484299Y3049000D01*
X6484299Y2981700D01*
X6486499Y2981700D01*
X6444165Y2606299D02*
G01*
X6444165Y2539001D01*
X6484299Y2539001D01*
X6484299Y2606299D01*
X6486499Y2606299D01*
X6579301Y2606299D02*
G01*
X6579301Y2981700D01*
X6349298Y2606299D02*
G01*
X6349298Y2981700D01*
X6349298Y2981700D02*
G01*
X6579301Y2981700D01*
X6349298Y2606299D02*
G01*
X6579301Y2606299D01*
G75*
G01*
X4070345Y2419541D02*
G03*
X4070345Y2426652I399984J3556D01*
G75*
G01
X5239309Y5456199D02*
G03X5239309Y5456199I-50013J0D01*
G75*
G01
X4789297Y5456199D02*
G03X4789297Y5456199I-50013J0D01*
M02*
